<svg id="Layer_1" data-name="Layer 1" xmlns="http://www.w3.org/2000/svg" viewBox="0 0 160 19"><defs><style>.cls-1{isolation:isolate;}.cls-2{fill:#4b1f70;}.cls-3{fill:#1b0e31;}.cls-4{fill:#fff;}</style></defs><title>logo-darkfin</title><g class="cls-1"><path d="M71,13.81a5,5,0,0,1-1.77-.31A3.31,3.31,0,0,1,68,12.67l.28-.45a3.63,3.63,0,0,0,1.18.75,4.24,4.24,0,0,0,1.59.3,3.63,3.63,0,0,0,1.38-.22,1.69,1.69,0,0,0,.79-.59,1.46,1.46,0,0,0,.26-.83,1.24,1.24,0,0,0-.29-.86,2,2,0,0,0-.76-.52,5.81,5.81,0,0,0-1-.32c-.37-.09-.74-.18-1.11-.29a4.76,4.76,0,0,1-1-.39,2,2,0,0,1-.75-.65,1.91,1.91,0,0,1-.28-1.07,2.16,2.16,0,0,1,.31-1.11,2.29,2.29,0,0,1,1-.81,3.92,3.92,0,0,1,1.69-.32,4.6,4.6,0,0,1,1.37.21,3.78,3.78,0,0,1,1.16.55l-.23.49A3.76,3.76,0,0,0,72.34,6a4.17,4.17,0,0,0-1.17-.18,3.38,3.38,0,0,0-1.33.23,1.65,1.65,0,0,0-.78.61,1.46,1.46,0,0,0-.26.84,1.29,1.29,0,0,0,.29.87,1.81,1.81,0,0,0,.75.51,6.56,6.56,0,0,0,1,.33L72,9.5a5.14,5.14,0,0,1,1,.39,2,2,0,0,1,.76.65,1.79,1.79,0,0,1,.29,1.05,2,2,0,0,1-.33,1.1,2.22,2.22,0,0,1-1,.82A4.16,4.16,0,0,1,71,13.81Z"/><path d="M79.52,13.75l3.86-8.4H84l3.86,8.4H87.2l-3.65-8h.27l-3.64,8Zm1.42-2.36.2-.52h5l.2.52Z"/><path d="M94.18,13.75V5.35h.52l3.9,6.74h-.28l3.89-6.74h.51v8.4h-.6l0-7.47h.17L98.6,12.64h-.3L94.6,6.28h.18v7.47Z"/><path d="M109.05,13.75l3.86-8.4h.62l3.86,8.4h-.66l-3.65-8h.27l-3.64,8Zm1.42-2.36.2-.52h5l.2.52Z"/><path d="M123.71,13.75V5.35H127a5,5,0,0,1,2.34.54,3.93,3.93,0,0,1,1.56,1.49,4.13,4.13,0,0,1,.56,2.17,4.17,4.17,0,0,1-.56,2.18,3.91,3.91,0,0,1-1.56,1.48,4.76,4.76,0,0,1-2.34.54Zm.62-.55H127a4.39,4.39,0,0,0,2.07-.46,3.49,3.49,0,0,0,1.35-1.29,3.7,3.7,0,0,0,.48-1.9,3.63,3.63,0,0,0-.48-1.88,3.45,3.45,0,0,0-1.35-1.3A4.39,4.39,0,0,0,127,5.91h-2.66Z"/><path d="M138.43,13.75V5.35H139v8.4Zm.54-4V9.22h5.76v.54Zm5.68,4V5.35h.62v8.4Z"/><path d="M153,13.75V5.35h.62v8.4Z"/></g><polygon class="cls-2" points="66.49 10.32 39.82 9.44 39.82 11.19 66.49 10.32"/><polygon class="cls-2" points="0 10.32 26.67 11.19 26.67 9.44 0 10.32"/><ellipse class="cls-3" cx="33.25" cy="10.06" rx="6.73" ry="6.43"/><ellipse class="cls-2" cx="33.25" cy="10.12" rx="3.81" ry="3.64"/><polygon class="cls-4" points="33.15 4.11 32.87 10.31 33.43 10.31 33.15 4.11"/><polygon class="cls-4" points="29.44 6.67 32.94 10.33 33.22 10.07 29.44 6.67"/><polygon class="cls-4" points="35.51 8.14 32.92 10.13 33.33 10.53 35.51 8.14"/><polygon class="cls-4" points="30.79 12.49 33.38 10.49 32.97 10.11 30.79 12.49"/><polygon class="cls-4" points="36.86 13.83 33.36 10.17 33.09 10.44 36.86 13.83"/><polygon class="cls-4" points="33.15 16.52 33.43 10.32 32.87 10.32 33.15 16.52"/><polygon class="cls-4" points="15.52 10.31 33.15 10.59 33.15 10.04 15.52 10.31"/><polygon class="cls-4" points="50.78 10.32 33.15 10.05 33.15 10.59 50.78 10.32"/></svg>